# xmcd
#
# Track frame offsets:
#	150
#	20292
#	42627
#	66152
#	85647
#	105475
#	127962
#	143835
#	164712
#	183670
#
# Disc length: 2720 seconds
#
# Revision: 1
# Processed by: cddbd v1.5.2PL0 Copyright (c) Steve Scherf et al.
# Submitted via: EZCDAudioConverter 8.0.2.1
#
DISCID=860a9e0a
DTITLE=Chế Linh, Hương Lan, Tuấn Vũ - Tình Yêu Cách Trở
DYEAR=1993
DGENRE=East Asia
TTITLE0=Hương Lan - Tôi bước vào yêu
TTITLE1=Tuấn Vũ - Bạc trắng lửa hồng
TTITLE2=Chế Linh - Hai đứa giận nhau
TTITLE3=Hương Lan - Sương trắng miền quê ngoại
TTITLE4=Tuấn Vũ - Giữa lòng đất mẹ
TTITLE5=Hương Lan - Xa vắng
TTITLE6=Chế Linh - Kẻ ở miền xa
TTITLE7=Tuấn Vũ - Tình Yêu Cách Trở
TTITLE8=Chế Linh - Hương tình cũ
TTITLE9=Hương Lan - Lá vàng khóc lá khô
EXTD=
EXTT0=
EXTT1=
EXTT2=
EXTT3=
EXTT4=
EXTT5=
EXTT6=
EXTT7=
EXTT8=
EXTT9=
PLAYORDER=
